<?xml version="1.0" standalone="no"?>
<!DOCTYPE svg PUBLIC "-//W3C//DTD SVG 20010904//EN"
 "http://www.w3.org/TR/2001/REC-SVG-20010904/DTD/svg10.dtd">
<svg version="1.0" xmlns="http://www.w3.org/2000/svg"
 width="1990.000000pt" height="1990.000000pt" viewBox="0 0 1990.000000 1990.000000"
 preserveAspectRatio="xMidYMid meet">
<metadata>
Created by potrace 1.11, written by Peter Selinger 2001-2013
</metadata>
<g transform="translate(0.000000,1990.000000) scale(0.100000,-0.100000)"
fill="#000000" stroke="none">
<path d="M3859 19846 c-2 -2 -67 -7 -144 -11 -77 -4 -153 -8 -168 -10 -15 -2
-60 -6 -100 -10 -1265 -112 -2265 -551 -2819 -1240 -278 -345 -474 -802 -532
-1240 -29 -221 -34 -305 -31 -570 2 -143 5 -271 8 -285 3 -14 8 -53 11 -86 3
-34 8 -77 10 -95 3 -19 10 -70 16 -114 6 -44 24 -147 40 -230 27 -134 59 -327
75 -440 3 -22 8 -51 10 -65 3 -14 7 -43 11 -65 3 -22 7 -47 9 -55 2 -8 7 -35
10 -60 3 -25 8 -56 10 -70 3 -14 7 -38 9 -55 3 -16 14 -88 26 -160 11 -71 23
-146 26 -165 3 -19 10 -64 16 -100 5 -36 12 -78 15 -95 2 -16 13 -84 23 -150
29 -180 151 -946 156 -980 3 -16 11 -70 19 -120 8 -49 30 -193 50 -320 20
-126 38 -241 41 -255 2 -14 8 -54 14 -90 5 -36 21 -135 34 -220 39 -239 155
-970 161 -1015 3 -22 10 -62 15 -90 7 -40 34 -215 55 -355 2 -14 10 -65 19
-115 8 -49 17 -110 21 -135 3 -25 8 -52 10 -60 3 -8 16 -89 29 -180 14 -91 28
-183 31 -205 6 -36 22 -136 85 -530 27 -165 48 -302 56 -350 8 -54 60 -386 80
-505 8 -52 17 -106 19 -120 5 -31 74 -476 80 -510 2 -14 38 -241 80 -505 42
-264 85 -527 96 -585 145 -752 484 -1480 993 -2135 39 -49 73 -92 76 -95 3 -3
38 -44 77 -92 177 -211 432 -463 703 -692 164 -139 475 -354 685 -475 84 -49
364 -193 393 -202 9 -3 8 -20 -6 -74 -19 -69 -47 -192 -57 -250 -36 -196 -100
-591 -120 -735 -3 -25 -10 -72 -15 -105 -5 -33 -12 -82 -15 -110 -4 -27 -8
-60 -10 -72 -2 -11 -11 -78 -21 -147 -20 -142 -10 -131 -119 -140 -145 -13
-293 -27 -330 -31 -22 -3 -89 -10 -150 -15 -60 -6 -119 -13 -130 -15 -11 -2
-47 -7 -80 -10 -79 -8 -216 -23 -345 -40 -19 -2 -57 -7 -85 -10 -27 -3 -77
-10 -110 -15 -33 -5 -80 -12 -105 -15 -25 -3 -56 -8 -70 -10 -14 -2 -43 -7
-65 -10 -78 -10 -240 -34 -265 -39 -14 -3 -106 -19 -205 -36 -501 -87 -889
-192 -1110 -300 -115 -57 -187 -113 -230 -178 -26 -39 -30 -56 -30 -112 0 -58
4 -73 30 -111 32 -46 81 -93 124 -120 232 -141 616 -252 1256 -363 143 -25
276 -47 295 -50 211 -30 261 -37 295 -42 22 -2 51 -7 65 -9 51 -9 286 -38 488
-60 100 -11 138 -16 157 -20 11 -2 49 -7 85 -10 61 -5 217 -20 320 -30 25 -2
74 -7 110 -10 36 -3 81 -8 100 -10 72 -8 372 -33 605 -50 39 -3 90 -7 115 -10
25 -2 88 -7 140 -10 52 -3 118 -8 145 -10 28 -3 100 -7 160 -10 61 -3 133 -8
160 -10 56 -5 167 -12 325 -20 58 -3 141 -8 185 -10 44 -2 130 -7 190 -10 61
-3 151 -8 200 -10 136 -7 294 -14 455 -20 80 -3 192 -7 250 -10 137 -6 343
-13 610 -20 118 -3 274 -8 345 -10 790 -27 3472 -27 4235 0 63 2 221 7 350 10
250 6 446 12 600 20 52 3 172 7 265 10 214 7 481 19 660 30 39 2 124 7 190 10
66 3 149 8 185 10 36 2 115 7 175 10 61 3 135 8 165 10 30 3 96 7 145 10 164
10 249 16 305 20 30 2 89 7 130 10 41 3 100 7 130 10 83 7 167 14 250 20 41 3
95 8 120 10 25 2 83 7 130 11 47 3 92 8 100 9 8 1 53 6 100 10 47 3 96 8 110
10 14 2 79 9 145 15 148 13 151 14 420 45 121 14 240 28 265 31 46 5 176 22
220 29 14 2 48 7 75 10 28 4 91 13 140 20 50 8 113 17 140 20 28 3 70 10 95
15 25 5 140 26 255 46 684 118 1121 260 1278 417 59 59 73 84 83 145 17 106
-78 222 -256 309 -210 103 -617 216 -1030 288 -19 3 -109 19 -200 35 -149 26
-445 70 -575 85 -27 4 -57 8 -65 10 -8 2 -37 7 -65 10 -27 3 -84 10 -125 15
-41 5 -96 11 -122 14 -27 4 -69 8 -95 12 -27 3 -82 9 -123 14 -73 9 -129 15
-240 26 -30 2 -73 7 -95 9 -22 2 -94 9 -160 15 -66 7 -129 13 -140 15 -11 2
-23 4 -27 4 -5 1 -7 4 -6 8 2 10 -5 68 -52 403 -94 665 -173 1093 -233 1267
l-14 40 76 39 c856 442 1585 1211 2044 2157 251 516 450 1152 526 1677 5 36
23 151 40 255 16 105 64 406 106 670 41 264 86 548 100 630 29 183 79 496 105
665 11 69 36 226 56 350 19 124 37 236 39 250 22 140 68 431 90 565 17 105 72
452 80 510 3 22 10 65 15 95 5 30 11 71 14 90 3 19 7 44 10 55 2 11 7 40 10
65 3 25 26 171 51 325 25 154 54 339 65 410 11 72 22 139 24 150 2 11 9 56 15
100 7 44 16 103 21 130 5 28 12 68 15 90 7 50 18 121 55 350 82 517 164 1035
175 1105 8 54 18 116 21 135 2 11 18 107 34 215 17 107 33 204 35 215 3 11 7
38 10 60 5 36 39 257 51 330 44 265 81 511 89 595 4 36 9 74 11 85 19 94 26
614 11 800 -51 637 -261 1201 -621 1660 -97 124 -123 153 -255 285 -278 276
-648 524 -1035 691 -50 22 -100 44 -111 49 -31 15 -207 78 -325 116 -343 111
-774 197 -1160 229 -41 4 -88 10 -105 13 -32 6 -12359 15 -12366 8z m10353
-16661 c194 -576 389 -1148 393 -1156 4 -6 -16 -8 -57 -5 -35 3 -117 8 -183
11 -114 5 -170 8 -400 20 -175 9 -286 14 -435 20 -80 3 -197 7 -260 10 -63 3
-189 7 -280 10 -91 3 -214 8 -275 10 -60 2 -238 7 -395 11 -157 4 -323 8 -370
9 -146 5 -1479 18 -1820 18 -364 0 -1683 -13 -1830 -18 -52 -2 -223 -6 -380
-10 -157 -3 -330 -8 -385 -10 -55 -2 -185 -7 -290 -10 -104 -3 -224 -8 -265
-10 -41 -2 -154 -7 -250 -10 -96 -3 -206 -8 -245 -10 -38 -2 -126 -7 -195 -10
-69 -3 -152 -7 -185 -10 -33 -2 -127 -7 -209 -11 -143 -6 -149 -6 -142 12 7
17 63 182 315 929 45 132 83 246 86 253 3 10 813 12 4022 10 l4018 -3 17 -50z"/>
</g>
</svg>
